<?xml version="1.0" encoding="UTF-8" standalone="no"?><!DOCTYPE svg PUBLIC "-//W3C//DTD SVG 1.1//EN" "http://www.w3.org/Graphics/SVG/1.1/DTD/svg11.dtd"><svg width="100%" height="100%" viewBox="0 0 750 750" version="1.1" xmlns="http://www.w3.org/2000/svg" xmlns:xlink="http://www.w3.org/1999/xlink" xml:space="preserve" xmlns:serif="http://www.serif.com/" style="fill-rule:evenodd;clip-rule:evenodd;stroke-linejoin:round;stroke-miterlimit:1.41421;"><path d="M750,290.643c0,6.931 -3.906,14.492 -11.719,22.684l-163.612,167.297l38.762,236.295c0.301,2.205 0.451,5.356 0.451,9.452c0,6.616 -1.577,12.208 -4.732,16.776c-3.155,4.569 -7.738,6.853 -13.747,6.853c-5.709,0 -11.719,-1.89 -18.029,-5.671l-202.374,-111.531l-202.374,111.531c-6.61,3.781 -12.62,5.671 -18.029,5.671c-6.31,0 -11.042,-2.284 -14.197,-6.853c-3.155,-4.568 -4.733,-10.16 -4.733,-16.776c0,-1.891 0.301,-5.041 0.902,-9.452l38.762,-236.295l-164.063,-167.297c-7.512,-8.507 -11.268,-16.068 -11.268,-22.684c0,-11.657 8.413,-18.904 25.24,-21.739l226.262,-34.499l101.413,-215.029c5.709,-12.917 13.071,-19.376 22.085,-19.376c9.014,0 16.376,6.459 22.085,19.376l101.413,215.029l226.262,34.499c16.827,2.835 25.24,10.082 25.24,21.739Z" style="fill:#ddd;fill-rule:nonzero;"/></svg>